<?xml version="1.0" standalone="no"?>
<!DOCTYPE svg PUBLIC "-//W3C//DTD SVG 20010904//EN"
 "http://www.w3.org/TR/2001/REC-SVG-20010904/DTD/svg10.dtd">
<svg version="1.0" xmlns="http://www.w3.org/2000/svg"
 width="168.000000pt" height="91.000000pt" viewBox="0 0 168.000000 91.000000"
 preserveAspectRatio="xMidYMid meet">

<g transform="translate(0.000000,91.000000) scale(0.100000,-0.100000)"
fill="#000000" stroke="none">
<path d="M702 653 c-70 -34 -101 -125 -67 -197 67 -141 275 -92 275 64 0 110
-111 181 -208 133z m128 -81 c26 -33 25 -75 -2 -106 -40 -43 -107 -36 -133 15
-46 88 74 169 135 91z"/>
<path d="M190 658 c0 -2 -22 -66 -50 -142 -28 -76 -50 -140 -50 -142 0 -2 13
-4 30 -4 23 0 33 7 45 30 13 26 21 30 54 30 34 0 40 -4 50 -30 8 -24 16 -30
40 -30 17 0 31 3 31 8 0 4 -22 68 -49 142 -44 123 -51 135 -75 138 -14 2 -26
2 -26 0z m40 -155 c0 -7 -7 -13 -15 -13 -16 0 -19 9 -9 35 5 13 8 14 15 3 5
-7 9 -19 9 -25z"/>
<path d="M370 515 l0 -145 86 0 c82 0 87 1 116 30 28 28 30 35 23 73 -4 23 -7
63 -6 88 1 37 -3 51 -25 72 -25 25 -33 27 -110 27 l-84 0 0 -145z m149 72 c16
-20 4 -27 -46 -27 -41 0 -56 14 -36 33 12 12 70 7 82 -6z m5 -102 c30 -30 -8
-61 -65 -53 -24 3 -35 27 -25 54 7 19 70 18 90 -1z"/>
<path d="M950 560 c0 -114 12 -150 60 -175 57 -30 127 -10 155 45 10 20 15 59
15 130 l0 100 -30 0 -30 0 0 -90 c0 -84 -2 -93 -25 -116 -20 -20 -29 -23 -45
-14 -32 17 -40 44 -40 134 l0 86 -30 0 -30 0 0 -100z"/>
<path d="M1220 631 c0 -28 3 -30 43 -33 l42 -3 3 -112 3 -113 29 0 30 0 0 115
0 115 40 0 c38 0 40 2 40 30 l0 30 -115 0 -115 0 0 -29z"/>
</g>
</svg>
