<svg version="1.1" id="Layer_1" xmlns="http://www.w3.org/2000/svg" xmlns:xlink="http://www.w3.org/1999/xlink" x="0px" y="0px"
	 width="100%" viewBox="0 0 860 903" enable-background="new 0 0 860 903" xml:space="preserve">
<path fill="#F7F7F7" opacity="1.000000" stroke="none" 
	d="
M499.000000,904.000000 
	C332.666656,904.000000 166.833328,904.000000 1.000000,904.000000 
	C1.000000,603.000000 1.000000,302.000000 1.000000,1.000000 
	C287.666656,1.000000 574.333313,1.000000 861.000000,1.000000 
	C861.000000,302.000000 861.000000,603.000000 861.000000,904.000000 
	C740.500000,904.000000 620.000000,904.000000 499.000000,904.000000 
M756.908447,476.726685 
	C756.600830,477.152344 756.293274,477.578003 755.467957,478.398438 
	C755.284241,479.237427 755.100525,480.076416 754.315674,481.021790 
	C753.737427,481.427094 753.159180,481.832397 752.580933,482.237701 
	C752.841431,482.516418 753.101990,482.795166 753.362549,483.073883 
	C753.941650,482.415375 754.520813,481.756897 755.716125,480.970825 
	C756.147095,480.117737 756.578064,479.264618 757.595825,478.197845 
	C757.770203,477.833649 757.944519,477.469482 758.644409,476.891998 
	C758.923950,476.403198 759.203491,475.914398 759.992615,475.002014 
	C762.619751,470.986542 765.246948,466.971039 768.182861,462.612915 
	C768.392151,462.376434 768.526917,462.103241 769.059326,461.283020 
	C796.630798,417.694336 810.271912,369.474640 816.497498,318.737549 
	C826.399475,358.624481 822.155945,396.499847 800.321045,431.923859 
	C800.787048,432.233795 801.252991,432.543701 801.718994,432.853607 
	C805.602661,427.596069 809.486328,422.338531 813.369995,417.080994 
	C811.313843,444.425232 805.536621,470.774384 797.691650,497.311127 
	C790.760132,513.469177 783.828613,529.627258 776.349487,546.198730 
	C768.269653,556.327087 760.189758,566.455444 751.574463,577.068420 
	C752.116638,577.113525 752.658875,577.158630 753.824829,576.960876 
	C763.401611,568.202515 771.616699,558.349548 778.377075,546.457642 
	C787.672546,530.884888 794.884644,514.402222 800.349365,496.357941 
	C800.922852,494.625946 801.522522,492.902130 802.065857,491.160706 
	C812.983765,456.169373 819.185181,420.122803 826.404785,384.277649 
	C834.894592,342.125946 831.170227,301.548645 813.249573,262.442078 
	C811.036987,257.613831 811.021179,254.253448 815.430725,251.097824 
	C818.744995,248.725998 819.251831,245.856049 817.336426,242.023849 
	C815.966797,239.283447 815.568054,236.015396 814.976196,232.936615 
	C813.219299,223.798279 811.545288,214.643494 809.914551,205.481674 
	C809.264954,201.832489 807.145325,199.512695 803.774780,198.323380 
	C797.512573,196.113724 791.194946,194.060501 784.943298,191.822311 
	C783.470459,191.295013 781.301514,190.582932 780.923889,189.460739 
	C777.769287,180.088043 770.243347,171.951080 772.760498,160.908035 
	C773.186035,159.041061 772.749390,156.923218 772.464111,154.957123 
	C770.274597,139.866943 761.694519,128.285660 750.258667,119.392914 
	C737.319031,109.330750 723.636536,99.992012 709.389832,91.901062 
	C691.501526,81.742012 672.790344,73.069344 655.708679,61.419292 
	C649.982666,57.514015 643.572021,54.517017 637.241699,51.611755 
	C619.879944,43.643688 601.801331,38.718327 582.559570,42.118214 
	C571.797302,44.019833 561.258484,47.176670 550.607422,49.719875 
	C544.195129,51.250980 537.760864,52.689800 531.336426,54.170097 
	C531.384216,54.489567 531.432068,54.809032 531.479858,55.128502 
	C533.639648,55.128502 535.799500,55.128502 537.543945,55.677704 
	C535.736755,56.839718 533.929626,58.001728 531.490173,59.721855 
	C530.239075,60.152004 528.981628,60.564846 527.737793,61.014999 
	C515.750854,65.353081 503.300446,68.732819 491.880829,74.246902 
	C470.141266,84.744095 451.738647,100.255669 433.608337,116.000748 
	C431.989319,117.406769 429.726044,118.666908 427.658813,118.853767 
	C420.201324,119.527870 412.694794,120.056084 405.216644,119.949364 
	C401.047638,119.889870 396.731567,118.944939 392.772705,117.564629 
	C383.055969,114.176819 373.608521,110.009270 363.867920,106.699287 
	C349.957886,101.972481 335.704041,98.565216 320.864746,99.084991 
	C309.154633,99.495163 297.747253,102.165146 291.394897,112.839920 
	C287.289337,119.739029 281.717438,123.877090 275.317413,127.721840 
	C272.039581,129.690979 268.904724,131.896378 265.662445,133.926682 
	C234.067566,153.711227 214.280670,181.607971 207.618622,218.488571 
	C205.742783,228.873108 204.048904,239.290512 202.271576,249.692825 
	C202.863129,249.867508 203.454681,250.042175 204.046219,250.216843 
	C209.298569,213.377579 220.164307,179.177628 248.702728,153.364914 
	C247.648361,155.841629 245.976868,157.953461 244.300262,160.061234 
	C233.453110,173.697876 225.335663,188.596146 223.424789,206.241287 
	C222.658447,213.317734 222.877396,220.540466 221.641953,227.518524 
	C218.833466,243.381454 215.401917,259.134094 211.921143,275.707184 
	C211.261307,281.007385 210.601456,286.307587 209.941620,291.607788 
	C210.442734,291.667267 210.943863,291.726746 211.444977,291.786224 
	C212.258484,286.177612 213.071976,280.569000 214.055771,274.174225 
	C216.760651,262.809448 219.465530,251.444687 222.632507,240.337280 
	C223.038177,240.904480 223.443848,241.471664 223.909302,242.969360 
	C222.280014,261.594543 220.650726,280.219757 219.021454,298.844940 
	C219.238693,298.873169 219.455933,298.901398 219.673172,298.929626 
	C221.212830,291.266602 222.752487,283.603607 224.292160,275.940613 
	C224.730759,275.930145 225.169357,275.919708 225.607956,275.909241 
	C226.203796,281.560181 226.799637,287.211121 227.384293,292.755920 
	C227.563461,292.604156 228.158188,292.100372 228.910583,291.462982 
	C235.169434,300.861389 226.854263,309.719788 228.841888,319.007294 
	C230.493698,313.405762 232.145523,307.804260 234.030899,301.410767 
	C239.231842,309.092712 245.742767,313.621613 253.884445,315.894623 
	C256.571320,316.644775 259.247314,317.668365 261.696381,318.995026 
	C272.370087,324.776855 283.036224,330.583496 293.508636,336.716583 
	C295.477753,337.869781 297.344452,340.349518 297.914215,342.563110 
	C303.893799,365.794556 316.504578,383.912292 337.699585,395.747559 
	C339.119843,396.540588 340.624268,398.525330 340.756165,400.069672 
	C341.758148,411.802948 346.878693,421.349884 355.399536,429.250427 
	C356.592712,430.356750 357.766327,431.484131 358.855774,432.513672 
	C349.234802,460.715698 335.804840,486.228424 314.999390,507.558350 
	C298.531708,524.441223 278.485809,535.723694 257.575775,545.839722 
	C204.463165,571.534973 159.003448,607.031067 121.524323,652.617249 
	C81.807945,700.924561 55.694618,756.240112 38.059044,815.855408 
	C35.635429,824.048157 33.528992,832.334717 31.176657,840.940247 
	C229.566544,841.592590 427.118988,842.242188 625.311707,842.893860 
	C624.465149,841.156799 623.927795,839.993958 623.340149,838.857056 
	C600.058533,793.810059 577.116211,748.581970 553.244446,703.849792 
	C547.293884,692.699341 538.971130,682.602112 530.604919,673.009583 
	C520.979736,661.973511 508.369720,654.163635 493.792908,652.603333 
	C482.436829,651.387756 474.354431,646.131165 466.600250,638.982849 
	C465.131714,637.629028 463.681519,636.178467 461.989014,635.161987 
	C459.208038,633.491882 459.265625,631.553162 460.581116,628.968689 
	C465.326752,619.645386 469.391541,609.923950 474.754089,600.976562 
	C487.631378,579.490967 504.622040,562.347595 528.428162,552.861816 
	C531.651550,551.577332 533.698608,551.906860 536.348083,554.219604 
	C555.545654,570.977173 576.766724,584.742981 600.436646,594.159119 
	C608.243835,597.264832 617.220093,598.661865 625.664734,598.673035 
	C642.075928,598.694763 650.082581,591.160400 653.218079,575.190857 
	C655.259766,564.792358 658.188782,562.728638 668.945801,562.879944 
	C671.388000,562.914307 674.507568,561.632568 676.193848,559.878418 
	C681.458740,554.401611 681.613464,547.877563 678.085388,541.002502 
	C690.944702,545.558105 701.368652,539.200378 703.159851,526.114563 
	C703.588745,522.981079 703.950684,519.835815 704.480469,516.719238 
	C706.153870,506.874817 707.722534,505.644958 717.387939,507.947632 
	C724.987305,509.758087 732.302307,509.583282 739.275146,506.074341 
	C746.800293,502.287476 751.201599,500.580322 747.938293,489.560760 
	C747.650635,489.041901 747.362976,488.523010 746.683105,487.364197 
	C745.412659,481.175049 744.142212,474.985931 743.213318,468.416199 
	C743.469177,467.631012 743.725037,466.845825 744.028809,466.012238 
	C744.028809,466.012238 744.055969,465.949799 744.619812,465.571045 
	C745.410583,463.371338 746.201294,461.171600 747.006531,458.606323 
	C747.006531,458.606323 747.009216,458.240448 747.684448,457.973419 
	C749.744446,453.301880 751.804504,448.630341 754.180786,443.306946 
	C759.461914,428.642395 765.471008,414.191528 769.853577,399.263184 
	C776.436951,376.838196 781.904053,354.084686 787.776184,331.452759 
	C788.440308,328.892883 789.217407,326.163116 788.974182,323.604126 
	C788.222168,315.690491 792.426392,310.556976 798.649231,305.994751 
	C798.878723,305.982056 799.108276,305.969360 799.435547,306.853790 
	C795.460938,340.063904 789.532654,372.913330 777.749268,404.303528 
	C770.946838,422.424744 762.396484,439.889771 754.082886,458.202576 
	C754.032288,458.916809 753.981628,459.631042 753.931030,460.345276 
	C754.484619,459.917175 755.038208,459.489075 756.106628,458.574341 
	C769.163635,439.402161 779.458374,418.763702 786.978455,396.903534 
	C793.657104,377.489227 799.117859,357.655914 805.993896,338.067871 
	C806.286560,338.085938 806.579285,338.104004 806.970581,338.944427 
	C805.486450,347.288361 804.249512,355.685211 802.474976,363.966888 
	C795.235840,397.752045 784.188110,430.185303 767.182983,460.877533 
	C766.998840,461.164276 766.897583,461.477783 766.285828,462.165741 
	C763.763916,466.353851 761.242004,470.541962 758.220886,474.979645 
	C757.942322,475.459412 757.663696,475.939209 756.908447,476.726685 
M751.455017,462.402283 
	C751.300110,463.264801 751.145203,464.127289 750.354004,465.087006 
	C749.759338,465.864166 749.164612,466.641296 748.569885,467.418457 
	C749.062683,467.636749 749.555481,467.855011 750.048340,468.073273 
	C750.368774,467.052124 750.689270,466.030945 751.667969,464.918091 
	C752.114990,464.019836 752.562012,463.121582 753.724060,461.817413 
	C753.640625,461.382721 753.557251,460.947998 753.473816,460.513306 
	C752.979065,461.009827 752.484253,461.506317 751.455017,462.402283 
M751.754089,486.197998 
	C751.616150,485.696594 751.478271,485.195221 751.340393,484.693848 
	C751.015625,484.978363 750.690857,485.262909 750.366028,485.547424 
	C750.694275,485.895996 751.022522,486.244568 751.754089,486.197998 
M748.934998,579.536133 
	C749.701355,579.296387 750.467712,579.056702 751.234070,578.817017 
	C751.094849,578.490051 750.955627,578.163147 750.816467,577.836182 
	C750.338806,578.166443 749.861206,578.496643 748.934998,579.536133 
M748.492798,581.525818 
	C748.492798,581.525818 748.500000,581.487793 748.492798,581.525818 
z"/>
<path fill="#000000" opacity="1.000000" stroke="none" 
	d="
M537.959351,55.128502 
	C535.799500,55.128502 533.639648,55.128502 531.479858,55.128502 
	C531.432068,54.809032 531.384216,54.489567 531.336426,54.170097 
	C537.760864,52.689800 544.195129,51.250980 550.607422,49.719875 
	C561.258484,47.176670 571.797302,44.019833 582.559570,42.118214 
	C601.801331,38.718327 619.879944,43.643688 637.241699,51.611755 
	C643.572021,54.517017 649.982666,57.514015 655.708679,61.419292 
	C672.790344,73.069344 691.501526,81.742012 709.389832,91.901062 
	C723.636536,99.992012 737.319031,109.330750 750.258667,119.392914 
	C761.694519,128.285660 770.274597,139.866943 772.464111,154.957123 
	C772.749390,156.923218 773.186035,159.041061 772.760498,160.908035 
	C770.243347,171.951080 777.769287,180.088043 780.923889,189.460739 
	C781.301514,190.582932 783.470459,191.295013 784.943298,191.822311 
	C791.194946,194.060501 797.512573,196.113724 803.774780,198.323380 
	C807.145325,199.512695 809.264954,201.832489 809.914551,205.481674 
	C811.545288,214.643494 813.219299,223.798279 814.976196,232.936615 
	C815.568054,236.015396 815.966797,239.283447 817.336426,242.023849 
	C819.251831,245.856049 818.744995,248.725998 815.430725,251.097824 
	C811.021179,254.253448 811.036987,257.613831 813.249573,262.442078 
	C831.170227,301.548645 834.894592,342.125946 826.404785,384.277649 
	C819.185181,420.122803 812.983765,456.169373 802.065857,491.160706 
	C801.522522,492.902130 800.922852,494.625946 799.684814,496.641724 
	C798.703247,496.880493 798.386169,496.835449 798.069031,496.790436 
	C805.536621,470.774384 811.313843,444.425232 813.369995,417.080994 
	C809.486328,422.338531 805.602661,427.596069 801.718994,432.853607 
	C801.252991,432.543701 800.787048,432.233795 800.321045,431.923859 
	C822.155945,396.499847 826.399475,358.624481 816.497498,318.737549 
	C810.271912,369.474640 796.630798,417.694336 768.584778,461.235748 
	C767.941101,460.995270 767.772034,460.802032 767.602905,460.608826 
	C784.188110,430.185303 795.235840,397.752045 802.474976,363.966888 
	C804.249512,355.685211 805.486450,347.288361 807.043640,338.274536 
	C807.032349,336.132385 806.947998,334.660126 806.863647,333.187866 
	C806.560791,333.205902 806.257874,333.223938 805.955017,333.241974 
	C805.675415,334.830505 805.395813,336.419006 805.116211,338.007538 
	C799.117859,357.655914 793.657104,377.489227 786.978455,396.903534 
	C779.458374,418.763702 769.163635,439.402161 755.626770,458.453186 
	C754.975586,458.104736 754.804199,457.877441 754.632812,457.650146 
	C762.396484,439.889771 770.946838,422.424744 777.749268,404.303528 
	C789.532654,372.913330 795.460938,340.063904 799.517944,305.849487 
	C799.310059,304.598785 799.019714,304.352448 798.737305,304.460938 
	C798.992676,304.881989 799.240051,304.948181 799.487488,305.014404 
	C799.221924,304.729736 798.956360,304.445099 798.676147,304.503845 
	C798.427490,305.226379 798.193542,305.605530 797.959595,305.984711 
	C792.426392,310.556976 788.222168,315.690491 788.974182,323.604126 
	C789.217407,326.163116 788.440308,328.892883 787.776184,331.452759 
	C781.904053,354.084686 776.436951,376.838196 769.853577,399.263184 
	C765.471008,414.191528 759.461914,428.642395 753.736694,443.633362 
	C752.911316,443.960388 752.530090,443.961060 752.203186,443.601929 
	C758.222534,426.941467 762.960083,410.334747 764.897400,392.662109 
	C764.936951,391.893066 764.865662,391.463959 764.794434,391.034821 
	C764.255188,391.412354 763.715881,391.789856 762.873779,392.360474 
	C761.710815,394.842682 760.801514,397.114655 759.998596,399.423615 
	C754.246643,415.965820 749.014648,432.714691 742.522034,448.960114 
	C740.091125,455.042603 739.892334,460.234955 741.945435,466.378998 
	C742.304321,467.434570 742.588074,468.115692 742.871826,468.796814 
	C744.142212,474.985931 745.412659,481.175049 746.831970,488.013062 
	C747.295776,489.168762 747.610779,489.675598 747.925720,490.182404 
	C751.201599,500.580322 746.800293,502.287476 739.275146,506.074341 
	C732.302307,509.583282 724.987305,509.758087 717.387939,507.947632 
	C707.722534,505.644958 706.153870,506.874817 704.480469,516.719238 
	C703.950684,519.835815 703.588745,522.981079 703.159851,526.114563 
	C701.368652,539.200378 690.944702,545.558105 678.085388,541.002502 
	C681.613464,547.877563 681.458740,554.401611 676.193848,559.878418 
	C674.507568,561.632568 671.388000,562.914307 668.945801,562.879944 
	C658.188782,562.728638 655.259766,564.792358 653.218079,575.190857 
	C650.082581,591.160400 642.075928,598.694763 625.664734,598.673035 
	C617.220093,598.661865 608.243835,597.264832 600.436646,594.159119 
	C576.766724,584.742981 555.545654,570.977173 536.348083,554.219604 
	C533.698608,551.906860 531.651550,551.577332 528.428162,552.861816 
	C504.622040,562.347595 487.631378,579.490967 474.754089,600.976562 
	C469.391541,609.923950 465.326752,619.645386 460.581116,628.968689 
	C459.265625,631.553162 459.208038,633.491882 461.989014,635.161987 
	C463.681519,636.178467 465.131714,637.629028 466.600250,638.982849 
	C474.354431,646.131165 482.436829,651.387756 493.792908,652.603333 
	C508.369720,654.163635 520.979736,661.973511 530.604919,673.009583 
	C538.971130,682.602112 547.293884,692.699341 553.244446,703.849792 
	C577.116211,748.581970 600.058533,793.810059 623.340149,838.857056 
	C623.927795,839.993958 624.465149,841.156799 625.311707,842.893860 
	C427.118988,842.242188 229.566544,841.592590 31.176657,840.940247 
	C33.528992,832.334717 35.635429,824.048157 38.059044,815.855408 
	C55.694618,756.240112 81.807945,700.924561 121.524323,652.617249 
	C159.003448,607.031067 204.463165,571.534973 257.575775,545.839722 
	C278.485809,535.723694 298.531708,524.441223 314.999390,507.558350 
	C335.804840,486.228424 349.234802,460.715698 358.855774,432.513672 
	C357.766327,431.484131 356.592712,430.356750 355.399536,429.250427 
	C346.878693,421.349884 341.758148,411.802948 340.756165,400.069672 
	C340.624268,398.525330 339.119843,396.540588 337.699585,395.747559 
	C316.504578,383.912292 303.893799,365.794556 297.914215,342.563110 
	C297.344452,340.349518 295.477753,337.869781 293.508636,336.716583 
	C283.036224,330.583496 272.370087,324.776855 261.696381,318.995026 
	C259.247314,317.668365 256.571320,316.644775 253.884445,315.894623 
	C245.742767,313.621613 239.231842,309.092712 234.030899,301.410767 
	C232.145523,307.804260 230.493698,313.405762 228.841888,319.007294 
	C226.854263,309.719788 235.169434,300.861389 228.910583,291.462982 
	C228.158188,292.100372 227.563461,292.604156 227.384293,292.755920 
	C226.799637,287.211121 226.203796,281.560181 225.607956,275.909241 
	C225.169357,275.919708 224.730759,275.930145 224.292160,275.940613 
	C222.752487,283.603607 221.212830,291.266602 219.673172,298.929626 
	C219.455933,298.901398 219.238693,298.873169 219.021454,298.844940 
	C220.650726,280.219757 222.280014,261.594543 224.001312,242.114197 
	C224.093307,238.970139 224.093307,236.681229 224.093307,234.392319 
	C223.944580,234.324310 223.795868,234.256317 223.647141,234.188324 
	C223.154892,236.152191 222.662643,238.116043 222.170410,240.079910 
	C219.465530,251.444687 216.760651,262.809448 213.693420,274.584930 
	C212.961914,274.974274 212.592773,274.952942 212.223633,274.931580 
	C215.401917,259.134094 218.833466,243.381454 221.641953,227.518524 
	C222.877396,220.540466 222.658447,213.317734 223.424789,206.241287 
	C225.335663,188.596146 233.453110,173.697876 244.300262,160.061234 
	C245.976868,157.953461 247.648361,155.841629 248.702728,153.364914 
	C220.164307,179.177628 209.298569,213.377579 204.046219,250.216843 
	C203.454681,250.042175 202.863129,249.867508 202.271576,249.692825 
	C204.048904,239.290512 205.742783,228.873108 207.618622,218.488571 
	C214.280670,181.607971 234.067566,153.711227 265.662445,133.926682 
	C268.904724,131.896378 272.039581,129.690979 275.317413,127.721840 
	C281.717438,123.877090 287.289337,119.739029 291.394897,112.839920 
	C297.747253,102.165146 309.154633,99.495163 320.864746,99.084991 
	C335.704041,98.565216 349.957886,101.972481 363.867920,106.699287 
	C373.608521,110.009270 383.055969,114.176819 392.772705,117.564629 
	C396.731567,118.944939 401.047638,119.889870 405.216644,119.949364 
	C412.694794,120.056084 420.201324,119.527870 427.658813,118.853767 
	C429.726044,118.666908 431.989319,117.406769 433.608337,116.000748 
	C451.738647,100.255669 470.141266,84.744095 491.880829,74.246902 
	C503.300446,68.732819 515.750854,65.353081 527.737793,61.014999 
	C528.981628,60.564846 530.239075,60.152004 532.237915,59.558842 
	C535.320068,59.473145 537.654480,59.550461 540.373291,59.684204 
	C542.769409,58.627407 544.781250,57.514179 546.856506,56.393883 
	C546.919983,56.386818 547.051208,56.198776 547.362061,56.145317 
	C548.708801,55.312588 549.744812,54.533321 551.733093,53.037720 
	C549.852234,53.556053 549.217163,53.691189 548.611877,53.909309 
	C548.027832,54.119812 547.474670,54.415909 546.590088,54.709396 
	C545.678345,54.963898 545.084351,55.183407 544.341797,55.263947 
	C543.801331,55.119774 543.409546,55.114567 542.758240,55.032127 
	C541.970520,55.067722 541.442261,55.180550 540.655457,55.216270 
	C540.259216,55.254936 540.121521,55.370708 539.955200,55.524921 
	C539.926514,55.563366 539.864197,55.490364 539.426514,55.286331 
	C538.667236,55.097523 538.345642,55.112743 538.008057,55.147995 
	C537.992065,55.168022 537.959351,55.128502 537.959351,55.128502 
M750.198425,418.836700 
	C751.860718,413.311157 753.523071,407.785614 755.340515,401.744385 
	C739.343445,413.770325 734.609924,428.377014 739.874634,450.067535 
	C743.449402,439.335510 746.733032,429.477325 750.198425,418.836700 
z"/>
<path fill="#EEEEEE" opacity="1.000000" stroke="none" 
	d="
M764.786621,393.002075 
	C762.960083,410.334747 758.222534,426.941467 752.006897,443.912903 
	C750.173889,449.135986 748.591553,453.688232 747.009216,458.240448 
	C747.009216,458.240448 747.006531,458.606323 746.639099,458.861633 
	C745.533081,461.394592 744.794495,463.672180 744.055969,465.949799 
	C744.055969,465.949799 744.028809,466.012238 743.653809,466.011444 
	C742.809265,466.008606 742.339783,466.006561 741.870300,466.004547 
	C739.892334,460.234955 740.091125,455.042603 742.522034,448.960114 
	C749.014648,432.714691 754.246643,415.965820 759.998596,399.423615 
	C760.801514,397.114655 761.710815,394.842682 763.256714,392.606934 
	C764.223877,392.774200 764.505249,392.888123 764.786621,393.002075 
z"/>
<path fill="#232323" opacity="1.000000" stroke="none" 
	d="
M797.880371,497.050781 
	C798.386169,496.835449 798.703247,496.880493 799.499451,496.960052 
	C794.884644,514.402222 787.672546,530.884888 777.921448,546.577515 
	C777.276245,546.393372 777.086670,546.089294 776.897095,545.785278 
	C783.828613,529.627258 790.760132,513.469177 797.880371,497.050781 
z"/>
<path fill="#303030" opacity="1.000000" stroke="none" 
	d="
M776.623291,545.992004 
	C777.086670,546.089294 777.276245,546.393372 777.699341,546.833740 
	C771.616699,558.349548 763.401611,568.202515 753.251404,576.907593 
	C752.488586,576.764099 752.299255,576.674011 752.109863,576.583862 
	C760.189758,566.455444 768.269653,556.327087 776.623291,545.992004 
z"/>
<path fill="#3D3D3D" opacity="1.000000" stroke="none" 
	d="
M212.072388,275.319397 
	C212.592773,274.952942 212.961914,274.974274 213.608261,274.978027 
	C213.071976,280.569000 212.258484,286.177612 211.444977,291.786224 
	C210.943863,291.726746 210.442734,291.667267 209.941620,291.607788 
	C210.601456,286.307587 211.261307,281.007385 212.072388,275.319397 
z"/>
<path fill="#313131" opacity="1.000000" stroke="none" 
	d="
M767.874084,462.955566 
	C765.246948,466.971039 762.619751,470.986542 759.545898,475.041229 
	C758.972839,474.963654 758.846497,474.846893 758.720154,474.730103 
	C761.242004,470.541962 763.763916,466.353851 766.716919,462.210999 
	C767.390015,462.489349 767.632080,462.722473 767.874084,462.955566 
z"/>
<path fill="#353535" opacity="1.000000" stroke="none" 
	d="
M747.346802,458.106934 
	C748.591553,453.688232 750.173889,449.135986 751.952515,444.272736 
	C752.530090,443.961060 752.911316,443.960388 753.578613,443.959290 
	C751.804504,448.630341 749.744446,453.301880 747.346802,458.106934 
z"/>
<path fill="#D9D9D9" opacity="1.000000" stroke="none" 
	d="
M539.988892,59.627777 
	C537.654480,59.550461 535.320068,59.473145 532.554077,59.279785 
	C533.929626,58.001728 535.736755,56.839718 537.751648,55.403103 
	C537.959351,55.128502 537.992065,55.168022 537.987671,55.546730 
	C538.651855,57.159554 539.320374,58.393665 539.988892,59.627777 
z"/>
<path fill="#EBEBEB" opacity="1.000000" stroke="none" 
	d="
M744.337891,465.760437 
	C744.794495,463.672180 745.533081,461.394592 746.631836,459.044434 
	C746.201294,461.171600 745.410583,463.371338 744.337891,465.760437 
z"/>
<path fill="#B5B5B5" opacity="1.000000" stroke="none" 
	d="
M222.401459,240.208588 
	C222.662643,238.116043 223.154892,236.152191 223.647141,234.188324 
	C223.795868,234.256317 223.944580,234.324310 224.093307,234.392319 
	C224.093307,236.681229 224.093307,238.970139 223.971405,241.648956 
	C223.443848,241.471664 223.038177,240.904480 222.401459,240.208588 
z"/>
<path fill="#EEEEEE" opacity="1.000000" stroke="none" 
	d="
M805.555054,338.037720 
	C805.395813,336.419006 805.675415,334.830505 805.955017,333.241974 
	C806.257874,333.223938 806.560791,333.205902 806.863647,333.187866 
	C806.947998,334.660126 807.032349,336.132385 806.994324,337.863342 
	C806.579285,338.104004 806.286560,338.085938 805.555054,338.037720 
z"/>
<path fill="#EEEEEE" opacity="1.000000" stroke="none" 
	d="
M751.009766,465.009766 
	C750.689270,466.030945 750.368774,467.052124 750.048340,468.073273 
	C749.555481,467.855011 749.062683,467.636749 748.569885,467.418457 
	C749.164612,466.641296 749.759338,465.864166 750.677002,465.043518 
	C751.000000,465.000000 751.009766,465.009766 751.009766,465.009766 
z"/>
<path fill="#EEEEEE" opacity="1.000000" stroke="none" 
	d="
M754.916809,480.915405 
	C755.100525,480.076416 755.284241,479.237427 755.995605,478.270508 
	C756.685120,478.232208 756.847046,478.321869 757.009033,478.411530 
	C756.578064,479.264618 756.147095,480.117737 755.362061,480.989014 
	C755.008057,481.007233 754.916809,480.915405 754.916809,480.915405 
z"/>
<path fill="#EEEEEE" opacity="1.000000" stroke="none" 
	d="
M750.995117,464.994904 
	C751.145203,464.127289 751.300110,463.264801 751.978271,462.252563 
	C752.670654,462.143036 752.839844,462.183197 753.009033,462.223328 
	C752.562012,463.121582 752.114990,464.019836 751.338867,464.963928 
	C751.009766,465.009766 751.000000,465.000000 750.995117,464.994904 
z"/>
<path fill="#EEEEEE" opacity="1.000000" stroke="none" 
	d="
M751.552429,486.395569 
	C751.022522,486.244568 750.694275,485.895996 750.366028,485.547424 
	C750.690857,485.262909 751.015625,484.978363 751.340393,484.693848 
	C751.478271,485.195221 751.616150,485.696594 751.552429,486.395569 
z"/>
<path fill="#EEEEEE" opacity="1.000000" stroke="none" 
	d="
M755.053955,481.052795 
	C754.520813,481.756897 753.941650,482.415375 753.362549,483.073883 
	C753.101990,482.795166 752.841431,482.516418 752.580933,482.237701 
	C753.159180,481.832397 753.737427,481.427094 754.616211,480.968597 
	C754.916809,480.915405 755.008057,481.007233 755.053955,481.052795 
z"/>
<path fill="#EBEBEB" opacity="1.000000" stroke="none" 
	d="
M741.945435,466.378998 
	C742.339783,466.006561 742.809265,466.008606 743.629883,466.035645 
	C743.725037,466.845825 743.469177,467.631012 743.042542,468.606506 
	C742.588074,468.115692 742.304321,467.434570 741.945435,466.378998 
z"/>
<path fill="#303030" opacity="1.000000" stroke="none" 
	d="
M749.159302,579.181519 
	C749.861206,578.496643 750.338806,578.166443 750.816467,577.836182 
	C750.955627,578.163147 751.094849,578.490051 751.234070,578.817017 
	C750.467712,579.056702 749.701355,579.296387 749.159302,579.181519 
z"/>
<path fill="#000000" opacity="1.000000" stroke="none" 
	d="
M755.369385,458.696503 
	C755.038208,459.489075 754.484619,459.917175 753.931030,460.345276 
	C753.981628,459.631042 754.032288,458.916809 754.357849,457.926361 
	C754.804199,457.877441 754.975586,458.104736 755.369385,458.696503 
z"/>
<path fill="#EEEEEE" opacity="1.000000" stroke="none" 
	d="
M747.932007,489.871582 
	C747.610779,489.675598 747.295776,489.168762 747.028076,488.333038 
	C747.362976,488.523010 747.650635,489.041901 747.932007,489.871582 
z"/>
<path fill="#313131" opacity="1.000000" stroke="none" 
	d="
M757.302429,478.304688 
	C756.847046,478.321869 756.685120,478.232208 756.254456,478.073120 
	C756.293274,477.578003 756.600830,477.152344 757.326172,476.749176 
	C757.868958,476.882874 757.993958,476.994080 758.118896,477.105286 
	C757.944519,477.469482 757.770203,477.833649 757.302429,478.304688 
z"/>
<path fill="#313131" opacity="1.000000" stroke="none" 
	d="
M759.291138,475.253021 
	C759.203491,475.914398 758.923950,476.403198 758.381653,476.998657 
	C757.993958,476.994080 757.868958,476.882874 757.564575,476.595337 
	C757.663696,475.939209 757.942322,475.459412 758.470520,474.854858 
	C758.846497,474.846893 758.972839,474.963654 759.291138,475.253021 
z"/>
<path fill="#000000" opacity="1.000000" stroke="none" 
	d="
M768.028442,462.784241 
	C767.632080,462.722473 767.390015,462.489349 767.013611,462.037170 
	C766.897583,461.477783 766.998840,461.164276 767.392944,460.743164 
	C767.772034,460.802032 767.941101,460.995270 768.348755,461.490875 
	C768.526917,462.103241 768.392151,462.376434 768.028442,462.784241 
z"/>
<path fill="#000000" opacity="1.000000" stroke="none" 
	d="
M753.366577,462.020386 
	C752.839844,462.183197 752.670654,462.143036 752.245483,462.052856 
	C752.484253,461.506317 752.979065,461.009827 753.473816,460.513306 
	C753.557251,460.947998 753.640625,461.382721 753.366577,462.020386 
z"/>
<path fill="#EEEEEE" opacity="1.000000" stroke="none" 
	d="
M798.304443,305.989746 
	C798.193542,305.605530 798.427490,305.226379 798.714417,304.522552 
	C798.767334,304.197876 798.729370,304.106079 798.729370,304.106079 
	C799.019714,304.352448 799.310059,304.598785 799.469116,305.400909 
	C799.108276,305.969360 798.878723,305.982056 798.304443,305.989746 
z"/>
<path fill="#303030" opacity="1.000000" stroke="none" 
	d="
M752.939514,577.028931 
	C752.658875,577.158630 752.116638,577.113525 751.842163,576.826172 
	C752.299255,576.674011 752.488586,576.764099 752.939514,577.028931 
z"/>
<path fill="#303030" opacity="1.000000" stroke="none" 
	d="
M748.496399,581.506836 
	C748.500000,581.487793 748.492798,581.525818 748.496399,581.506836 
z"/>
<path fill="#ECECEC" opacity="1.000000" stroke="none" 
	d="
M750.107544,419.227905 
	C746.733032,429.477325 743.449402,439.335510 739.874634,450.067535 
	C734.609924,428.377014 739.343445,413.770325 755.340515,401.744385 
	C753.523071,407.785614 751.860718,413.311157 750.107544,419.227905 
z"/>
<path fill="#F7F7F7" opacity="1.000000" stroke="none" 
	d="
M540.373291,59.684204 
	C539.320374,58.393665 538.651855,57.159554 538.003662,55.526703 
	C538.345642,55.112743 538.667236,55.097523 539.189697,55.526909 
	C539.378418,56.285030 539.366272,56.598537 539.354126,56.912048 
	C539.564087,56.436863 539.773987,55.961674 539.983887,55.486481 
	C540.121521,55.370708 540.259216,55.254936 540.699463,55.544487 
	C541.673950,55.669659 542.345825,55.389511 543.017700,55.109360 
	C543.409546,55.114567 543.801331,55.119774 544.889343,55.578545 
	C545.988037,56.155056 546.390503,56.278000 546.793030,56.400948 
	C544.781250,57.514179 542.769409,58.627407 540.373291,59.684204 
z"/>
<path fill="#D9D9D9" opacity="1.000000" stroke="none" 
	d="
M546.907898,54.674400 
	C547.474670,54.415909 548.027832,54.119812 548.611877,53.909309 
	C549.217163,53.691189 549.852234,53.556053 551.733093,53.037720 
	C549.744812,54.533321 548.708801,55.312588 547.331421,55.763729 
	C546.962646,55.181870 546.935303,54.928135 546.907898,54.674400 
z"/>
<path fill="#D9D9D9" opacity="1.000000" stroke="none" 
	d="
M542.758240,55.032127 
	C542.345825,55.389511 541.673950,55.669659 540.958008,55.621593 
	C541.442261,55.180550 541.970520,55.067722 542.758240,55.032127 
z"/>
<path fill="#EBEBEB" opacity="1.000000" stroke="none" 
	d="
M764.897400,392.662109 
	C764.505249,392.888123 764.223877,392.774200 763.559570,392.413818 
	C763.715881,391.789856 764.255188,391.412354 764.794434,391.034821 
	C764.865662,391.463959 764.936951,391.893066 764.897400,392.662109 
z"/>
<path fill="#D9D9D9" opacity="1.000000" stroke="none" 
	d="
M539.955200,55.524925 
	C539.773987,55.961674 539.564087,56.436863 539.354126,56.912048 
	C539.366272,56.598537 539.378418,56.285030 539.627380,55.730942 
	C539.864197,55.490364 539.926514,55.563366 539.955200,55.524925 
z"/>
<path fill="#F7F7F7" opacity="1.000000" stroke="none" 
	d="
M546.590088,54.709393 
	C546.935303,54.928135 546.962646,55.181870 547.020630,55.817188 
	C547.051208,56.198776 546.919983,56.386818 546.856506,56.393883 
	C546.390503,56.278000 545.988037,56.155056 545.037964,55.717514 
	C545.084351,55.183407 545.678345,54.963898 546.590088,54.709393 
z"/>
<path fill="#EEEEEE" opacity="1.000000" stroke="none" 
	d="
M798.729065,304.179169 
	C798.956360,304.445099 799.221924,304.729736 799.487488,305.014404 
	C799.240051,304.948181 798.992676,304.881989 798.737305,304.460938 
	C798.729370,304.106079 798.767334,304.197876 798.729065,304.179169 
z"/>
</svg>