<?xml version="1.0" standalone="no"?>
<!DOCTYPE svg PUBLIC "-//W3C//DTD SVG 20010904//EN"
 "http://www.w3.org/TR/2001/REC-SVG-20010904/DTD/svg10.dtd">
<svg version="1.0" xmlns="http://www.w3.org/2000/svg"
 width="512.000000pt" height="512.000000pt" viewBox="0 0 512.000000 512.000000"
 preserveAspectRatio="xMidYMid meet">

<g transform="translate(0.000000,512.000000) scale(0.100000,-0.100000)"
fill="#000000" stroke="none">
<path d="M1035 4306 c-95 -30 -162 -88 -204 -176 l-26 -55 0 -1515 0 -1515 26
-55 c33 -70 89 -126 159 -159 l55 -26 1515 0 1515 0 55 26 c70 33 126 89 159
159 l26 55 0 1515 0 1515 -26 55 c-33 70 -89 126 -159 159 l-55 26 -1500 2
c-1190 1 -1508 -1 -1540 -11z m2965 -1746 l0 -1440 -415 0 -415 0 0 540 0 540
208 0 208 0 27 228 c15 125 28 233 27 240 0 9 -54 12 -235 12 l-235 0 0 183
c1 244 12 285 91 332 30 17 58 21 219 25 l185 5 3 217 2 216 -82 7 c-46 4
-169 5 -273 3 -174 -3 -196 -6 -263 -30 -159 -57 -277 -169 -333 -316 -38
-100 -48 -194 -49 -424 l0 -218 -210 0 -210 0 0 -240 0 -240 210 0 210 0 0
-540 0 -540 -775 0 -775 0 0 1440 0 1440 1440 0 1440 0 0 -1440z"/>
</g>
</svg>
