<?xml version="1.0" standalone="no"?>
<!DOCTYPE svg PUBLIC "-//W3C//DTD SVG 20010904//EN"
 "http://www.w3.org/TR/2001/REC-SVG-20010904/DTD/svg10.dtd">
<svg version="1.0" xmlns="http://www.w3.org/2000/svg"
 width="600.000000pt" height="600.000000pt" viewBox="0 0 600.000000 600.000000"
 preserveAspectRatio="xMidYMid meet">

<g transform="translate(0.000000,600.000000) scale(0.100000,-0.100000)"
fill="#000000" stroke="none">
<path d="M2320 5450 c-501 -8 -599 -20 -847 -101 -313 -103 -575 -328 -713
-613 -81 -167 -124 -326 -152 -561 -19 -158 -19 -2032 0 -2190 33 -283 108
-510 230 -695 172 -264 417 -435 743 -519 233 -60 298 -64 1236 -68 1106 -6
1309 5 1578 82 112 33 308 127 400 192 303 217 457 498 526 958 16 109 24
1744 10 2064 -8 181 -16 264 -36 357 -63 308 -188 540 -398 740 -144 137 -320
231 -539 288 -189 49 -281 57 -808 66 -536 9 -607 9 -1230 0z m1490 -430 c440
-27 636 -85 800 -237 99 -91 192 -238 233 -368 28 -89 59 -286 68 -440 12
-206 11 -1510 -1 -1720 -12 -204 -35 -398 -56 -480 -23 -85 -105 -250 -157
-316 -55 -69 -156 -146 -267 -203 -232 -119 -481 -140 -1590 -133 -645 4 -733
6 -897 25 -100 12 -210 28 -246 36 -336 78 -547 297 -627 651 -50 222 -52 270
-57 1050 -8 1154 17 1441 143 1685 24 48 69 114 99 147 85 94 245 196 370 236
88 28 276 59 405 67 193 11 1594 11 1780 0z"/>
<path d="M4120 4617 c-143 -69 -213 -241 -151 -371 29 -60 95 -124 156 -152
168 -79 377 50 393 241 6 84 -15 142 -77 209 -88 94 -217 123 -321 73z"/>
<path d="M2820 4294 c-236 -34 -380 -87 -555 -203 -152 -100 -347 -330 -421
-496 -80 -179 -108 -314 -107 -520 1 -357 117 -632 370 -876 182 -175 389
-282 627 -324 112 -19 323 -19 441 0 383 62 716 319 891 689 152 321 148 728
-10 1051 -67 135 -146 244 -262 355 -188 181 -381 277 -636 314 -95 14 -271
19 -338 10z m247 -424 c262 -34 499 -209 613 -451 95 -203 97 -466 5 -667 -67
-147 -222 -305 -368 -377 -119 -58 -187 -75 -322 -82 -249 -12 -424 57 -611
242 -88 87 -107 112 -148 195 -57 117 -76 201 -76 351 0 215 67 390 210 543
179 192 430 281 697 246z"/>
</g>
</svg>
