<?xml version="1.0" standalone="no"?>
<!DOCTYPE svg PUBLIC "-//W3C//DTD SVG 20010904//EN"
 "http://www.w3.org/TR/2001/REC-SVG-20010904/DTD/svg10.dtd">
<svg version="1.0" xmlns="http://www.w3.org/2000/svg"
 width="1600.000000pt" height="1600.000000pt" viewBox="0 0 1600.000000 1600.000000"
 preserveAspectRatio="xMidYMid meet">

<g transform="translate(0.000000,1600.000000) scale(0.100000,-0.100000)"
fill="#000000" stroke="none">
<path d="M3557 13484 c-344 -53 -669 -268 -862 -570 -88 -137 -156 -318 -180
-481 -22 -148 -22 -8718 0 -8866 70 -463 399 -852 847 -1002 210 -70 -159 -65
4638 -65 4797 0 4428 -5 4638 65 379 127 670 418 797 797 70 210 65 -159 65
4638 0 4797 5 4428 -65 4638 -91 271 -267 499 -505 656 -95 63 -177 102 -295
142 -207 69 157 64 -4645 63 -3614 -1 -4360 -3 -4433 -15z m8803 -1008 c49
-26 88 -64 113 -111 l22 -40 0 -4325 c0 -4201 -1 -4326 -19 -4360 -26 -49 -64
-88 -111 -113 l-40 -22 -4325 0 -4325 0 -40 22 c-47 25 -85 64 -111 113 -18
34 -19 159 -19 4360 0 4201 1 4326 19 4360 35 66 87 110 156 131 14 4 1964 7
4335 6 4184 -2 4311 -3 4345 -21z"/>
<path d="M5040 11621 c-412 -90 -699 -463 -677 -881 7 -134 27 -211 87 -335
83 -172 213 -304 385 -390 335 -167 725 -104 989 161 359 359 332 938 -59
1267 -79 66 -234 146 -335 172 -101 26 -287 29 -390 6z"/>
<path d="M9530 9350 c-274 -34 -518 -123 -740 -271 -121 -80 -307 -264 -378
-374 -76 -117 -77 -119 -90 -111 -9 5 -12 93 -12 332 l0 324 -700 0 -700 0 0
-2375 0 -2375 735 0 734 0 4 1353 c4 1479 0 1390 62 1612 86 306 263 491 545
567 74 20 108 23 265 23 198 -1 259 -11 369 -65 212 -106 323 -291 383 -642
16 -94 17 -224 20 -1475 l4 -1373 735 0 735 0 -4 1528 c-4 1573 -4 1570 -47
1869 -128 885 -558 1338 -1370 1443 -116 15 -458 21 -550 10z"/>
<path d="M4500 6875 l0 -2375 740 0 740 0 0 2375 0 2375 -740 0 -740 0 0
-2375z"/>
</g>
</svg>
