<?xml version="1.0" standalone="no"?>
<!DOCTYPE svg PUBLIC "-//W3C//DTD SVG 20010904//EN"
 "http://www.w3.org/TR/2001/REC-SVG-20010904/DTD/svg10.dtd">
<svg version="1.0" xmlns="http://www.w3.org/2000/svg"
 width="512.000000pt" height="512.000000pt" viewBox="0 0 512.000000 512.000000"
 preserveAspectRatio="xMidYMid meet">

<g transform="translate(0.000000,512.000000) scale(0.100000,-0.100000)"
fill="#000000" stroke="none">
<path d="M3355 4770 c-113 -24 -187 -51 -296 -106 -309 -159 -533 -471 -590
-823 -13 -85 -13 -274 2 -356 6 -36 9 -69 6 -72 -3 -3 -61 0 -129 7 -722 69
-1381 375 -1908 886 -69 66 -136 126 -148 133 -56 30 -149 8 -190 -44 -31 -39
-63 -194 -69 -330 -16 -357 134 -715 385 -918 40 -33 71 -61 69 -63 -4 -5
-122 16 -242 42 -50 11 -94 15 -117 10 -50 -9 -103 -60 -119 -115 -17 -57 4
-138 75 -286 141 -294 405 -518 717 -609 76 -22 81 -25 54 -31 -16 -4 -38 -9
-48 -12 -9 -2 -72 -10 -138 -18 -100 -11 -125 -17 -144 -35 -31 -29 -49 -83
-40 -118 21 -85 199 -301 319 -387 178 -126 370 -201 573 -220 l72 -7 -62 -46
c-232 -172 -542 -313 -829 -378 -125 -28 -332 -54 -434 -54 -99 0 -141 -34
-118 -95 8 -20 202 -118 355 -178 403 -159 794 -226 1253 -214 232 6 359 19
555 57 1090 211 1968 996 2346 2102 116 339 175 685 175 1030 l0 157 73 58
c93 74 224 200 298 286 64 74 72 104 38 138 -25 25 -53 23 -189 -14 -99 -28
-279 -61 -286 -54 -2 2 20 20 50 40 119 79 275 253 333 372 29 60 22 97 -25
113 -24 8 -43 3 -132 -34 -126 -54 -280 -106 -383 -129 l-77 -17 -61 56 c-116
108 -268 196 -419 245 -165 53 -389 66 -555 31z"/>
</g>
</svg>
